<?xml version="1.0" encoding="UTF-8" standalone="no"?>
<!DOCTYPE svg PUBLIC "-//W3C//DTD SVG 1.1//EN" "http://www.w3.org/Graphics/SVG/1.1/DTD/svg11.dtd">
<svg width="259.20" height="460.80" viewBox="0.00 0.00 1080.00 1920.00" xmlns="http://www.w3.org/2000/svg" xmlns:xlink="http://www.w3.org/1999/xlink">
<g stroke-linecap="round" transform="translate(-1.00, -3.00)" id="Layer_3_2">
<path d="M1044.50,750.50 C1046.10,753.20 1046.50,755.51 1046.54,765.28 C1046.60,788.87 1046.70,842.50 1046.74,872.54 C1046.76,909.03 1046.77,988.14 1046.77,1030.77 C1046.75,1070.89 1046.70,1144.67 1046.67,1178.34 C1046.63,1205.55 1046.49,1264.75 1046.51,1265.13 C1046.56,1267.10 1046.14,1269.67 1045.27,1270.76 C1043.69,1272.67 1038.52,1272.59 1037.67,1272.61 C1018.81,1272.83 968.75,1273.19 937.57,1273.31 C891.13,1273.41 819.66,1273.50 794.63,1273.50 C766.44,1273.49 706.88,1273.49 675.51,1273.48 C640.98,1273.48 568.75,1273.47 531.05,1273.46 C490.18,1273.45 407.45,1273.44 365.59,1273.43 C327.52,1273.43 255.33,1273.43 221.22,1273.43 C191.07,1273.44 134.71,1273.45 108.52,1273.46 C86.28,1273.47 39.56,1273.50 38.75,1273.26 C37.20,1272.77 36.37,1271.24 36.45,1269.76 C36.48,1269.47 35.77,1196.98 35.66,1164.86 C35.58,1122.19 35.49,1046.71 35.48,1013.90 C35.46,978.30 35.41,904.22 35.39,865.75 C35.39,834.17 35.44,780.19 35.49,757.80 C35.51,755.97 35.40,753.81 35.50,753.50 C35.74,752.80 36.50,752.25 36.50,751.50 C36.50,750.76 35.40,749.18 35.48,747.11 C35.49,746.73 35.52,670.96 35.50,661.50 C35.51,658.60 36.25,656.09 37.50,655.50 C38.07,655.25 133.67,654.59 171.19,654.47 C177.49,654.48 191.49,654.49 191.50,654.50 C191.93,654.69 192.03,655.50 192.50,655.50 C193.25,655.50 194.84,654.40 196.85,654.50 C197.25,654.51 263.55,654.44 288.42,654.42 C317.27,654.41 378.93,654.39 411.74,654.38 C448.53,654.38 526.06,654.38 566.81,654.39 C610.77,654.40 695.99,654.41 737.26,654.42 C774.57,654.43 845.24,654.45 878.59,654.45 C908.00,654.46 962.86,654.48 988.31,654.48 C1009.82,654.49 1040.83,654.50 1042.31,655.20 C1043.77,655.91 1044.65,657.85 1044.65,659.50 C1044.64,659.64 1044.45,736.64 1044.50,750.50" fill="none" stroke="rgb(0, 0, 0)" stroke-width="12.40" stroke-opacity="1.00" stroke-linejoin="round"/>
<path d="M192.50,749.50 C192.50,749.50 192.50,655.50 192.50,655.50" fill="none" stroke="rgb(0, 0, 0)" stroke-width="12.40" stroke-opacity="1.00" stroke-linejoin="round"/>
<path d="M36.50,751.50 C65.69,751.58 132.47,751.67 170.07,751.69 C176.40,751.64 190.48,751.51 190.50,751.50 C191.30,750.99 191.56,749.50 192.50,749.50 C193.44,749.50 193.71,750.99 194.50,751.50 C194.52,751.51 260.45,751.64 285.07,751.68 C313.64,751.71 374.74,751.76 407.27,751.78 C443.75,751.79 520.67,751.80 561.10,751.80 C605.02,751.79 690.62,751.77 732.29,751.75 C770.01,751.73 841.49,751.70 875.26,751.68 C905.07,751.65 960.75,751.60 986.61,751.58 C1008.52,751.55 1039.75,751.49 1040.15,751.50 C1042.15,751.59 1043.06,751.36 1044.50,750.50" fill="none" stroke="rgb(0, 0, 0)" stroke-width="12.40" stroke-opacity="1.00" stroke-linejoin="round"/>
<path d="M752.50,853.50 C736.08,869.92 696.64,909.36 673.62,932.38 C644.24,961.76 587.71,1018.29 560.57,1045.43 C540.03,1065.98 509.99,1096.01 500.50,1105.50" fill="none" stroke="rgb(0, 0, 0)" stroke-width="12.40" stroke-opacity="1.00" stroke-linejoin="round"/>
<path d="M358.50,964.50 C377.37,983.20 424.77,1030.18 453.30,1058.47 C474.27,1079.35 500.50,1105.49 500.50,1105.50 C500.55,1105.97 499.53,1106.03 499.50,1106.50 C499.47,1106.87 499.81,1107.87 500.50,1109.50" fill="none" stroke="rgb(0, 0, 0)" stroke-width="12.40" stroke-opacity="1.00" stroke-linejoin="round"/>
</g>
</svg>
