<?xml version="1.0" encoding="UTF-8" standalone="no"?>
<!DOCTYPE svg PUBLIC "-//W3C//DTD SVG 1.1//EN" "http://www.w3.org/Graphics/SVG/1.1/DTD/svg11.dtd">
<svg width="259.20" height="460.80" viewBox="0.00 0.00 1080.00 1920.00" xmlns="http://www.w3.org/2000/svg" xmlns:xlink="http://www.w3.org/1999/xlink">
<g stroke-linecap="round" transform="translate(37.00, 250.00)" id="brush">
<path d="M447.50,866.50 C449.93,868.50 452.55,869.52 457.68,870.73 C474.18,874.29 515.89,883.69 525.91,886.75 C529.60,887.89 536.81,890.49 539.89,891.63 C544.18,893.31 550.07,897.36 550.50,897.50 C550.93,897.65 553.85,897.23 554.50,897.50 C555.95,898.12 570.78,914.69 573.55,919.30 C576.25,923.87 581.03,937.35 582.65,943.84 C584.09,949.67 586.22,965.13 586.50,973.50 C586.62,977.07 586.19,995.21 585.91,1002.81 C585.49,1010.11 584.07,1023.86 582.91,1030.32 C581.21,1039.35 572.26,1072.40 566.86,1089.01 C563.18,1099.33 560.55,1105.85 556.56,1114.79 C550.39,1128.16 537.55,1150.88 526.37,1168.61 C514.75,1186.50 496.50,1212.26 487.88,1222.67 C482.61,1228.83 471.92,1240.52 466.51,1246.03 C455.89,1256.34 432.82,1276.24 419.71,1285.92 C412.74,1290.82 398.79,1299.98 392.22,1304.04 C386.04,1307.72 373.32,1314.87 365.00,1318.21 C360.02,1320.20 344.60,1324.45 339.75,1325.03 C335.97,1325.47 330.47,1325.38 327.13,1324.57 C321.93,1323.27 301.56,1312.78 300.50,1311.50 C299.89,1310.75 299.51,1308.69 299.50,1307.50" fill="none" stroke="rgb(0, 0, 0)" stroke-width="12.40" stroke-opacity="1.00" stroke-linejoin="round"/>
<path d="M414.50,1026.50 C413.68,1038.74 411.18,1069.76 409.70,1084.00 C407.77,1100.67 403.48,1134.12 400.61,1148.98 C398.34,1159.29 395.05,1171.77 392.31,1180.47 C390.06,1187.23 385.02,1201.22 382.91,1206.43 C379.74,1214.06 374.77,1223.92 370.07,1232.38 C365.36,1240.56 349.86,1263.96 347.50,1267.50" fill="none" stroke="rgb(0, 0, 0)" stroke-width="12.40" stroke-opacity="1.00" stroke-linejoin="round"/>
<path d="M449.50,1095.50 C446.21,1107.75 438.93,1134.11 431.32,1153.68 C426.07,1166.33 413.58,1192.98 410.50,1199.50" fill="none" stroke="rgb(0, 0, 0)" stroke-width="12.40" stroke-opacity="1.00" stroke-linejoin="round"/>
<path d="M496.50,1140.50 C492.31,1150.90 479.79,1177.15 470.47,1193.28 C466.67,1199.58 458.71,1212.43 454.37,1218.90 C449.84,1225.32 439.64,1238.64 434.13,1245.32 C428.77,1251.47 419.95,1261.56 416.50,1265.50" fill="none" stroke="rgb(0, 0, 0)" stroke-width="12.40" stroke-opacity="1.00" stroke-linejoin="round"/>
<path d="M395.50,1230.50 C389.73,1240.22 383.74,1249.30 377.14,1256.67 C376.60,1257.28 376.05,1257.89 375.50,1258.50" fill="none" stroke="rgb(0, 0, 0)" stroke-width="12.40" stroke-opacity="1.00" stroke-linejoin="round"/>
<path d="M355.50,1285.50 C346.29,1292.40 336.81,1298.31 329.05,1301.27 C326.02,1302.42 318.72,1304.80 315.73,1305.47 C310.73,1306.58 302.36,1306.55 300.50,1306.50" fill="none" stroke="rgb(0, 0, 0)" stroke-width="12.40" stroke-opacity="1.00" stroke-linejoin="round"/>
<path d="M295.50,1309.50 C296.89,1308.95 299.59,1308.00 300.00,1307.50 C300.71,1306.64 301.73,1304.13 302.94,1303.41 C303.99,1302.77 310.45,1298.47 313.60,1295.04 C317.50,1290.76 328.10,1275.74 333.14,1268.14 C338.06,1260.45 346.74,1246.63 350.50,1240.50 C356.26,1230.67 359.29,1223.29 362.50,1214.50 C364.64,1208.09 369.13,1194.28 371.40,1186.52 C372.65,1182.07 376.90,1162.78 378.60,1154.62 C380.32,1145.62 382.18,1133.56 382.36,1129.92 C382.67,1123.03 381.55,1082.14 380.97,1065.29 C380.47,1055.40 378.80,1043.31 378.50,1038.50 C378.36,1036.02 378.22,1018.17 378.70,1011.40 C379.21,1004.31 381.68,987.38 383.14,979.09 C384.73,970.98 388.27,953.50 389.53,948.07 C392.23,937.31 395.39,927.25 398.50,920.50 C401.13,914.84 409.83,899.56 413.72,893.79 C416.09,890.30 420.61,884.58 423.18,882.13 C431.43,874.34 447.48,866.72 447.50,866.50 C447.55,865.76 446.66,865.23 446.50,864.50 C446.49,864.47 460.69,799.26 466.10,774.51 C472.51,745.26 486.35,682.23 493.78,648.47 C502.21,610.20 519.95,529.76 529.26,487.59 C538.02,447.92 554.61,372.76 562.44,337.27 C569.34,305.98 582.21,247.58 588.18,220.48 C593.23,197.56 604.84,144.27 611.42,113.90 C611.99,111.28 613.42,104.76 613.50,104.50 C614.25,102.34 616.79,101.40 622.77,99.93 C636.07,96.83 641.71,96.08 644.65,96.47 C645.44,96.57 647.59,96.43 648.45,96.22 C651.58,95.47 655.49,95.51 660.88,96.06 C665.27,96.55 673.48,97.82 676.50,98.50 C680.36,99.39 686.01,101.46 689.00,103.24 C694.08,106.33 711.13,120.48 711.50,121.50 C711.72,122.18 709.87,124.72 709.50,125.50 C709.44,125.63 695.67,193.61 690.20,220.77 C683.44,254.63 668.83,328.00 660.99,367.51 C653.63,404.58 639.75,474.54 633.22,507.44 C627.52,536.17 612.96,609.35 604.11,653.79 C598.14,683.73 587.57,736.60 582.96,759.54 C576.85,789.45 564.10,851.35 557.45,883.33 C556.40,888.39 554.92,895.47 554.50,897.50" fill="none" stroke="rgb(0, 0, 0)" stroke-width="12.40" stroke-opacity="1.00" stroke-linejoin="round"/>
</g>
</svg>
